<svg id="Calque_1" data-name="Calque 1" xmlns="http://www.w3.org/2000/svg" viewBox="0 0 362.45 144.55"><defs><style>.cls-1{fill:#fd992a;}</style></defs><path class="cls-1" d="M481.77,396H510l43.17,79.66.55-79.66h23.63l-.83,129.44c-.05.75-.56,6.81-5,9.44-4.92,2.89-13.05.71-17.48-6.55Z" transform="translate(-426.25 -391.55)"/><path d="M513,509.24a5.19,5.19,0,0,1-2.25-3.62q4.35-19.08,8.71-38.15L537.15,396H518.66l3.92,7.6,4.89-.1-10,42.85c-.23-.26-.57-.62-1-1.06a20.2,20.2,0,0,0-11-5.48,20.8,20.8,0,0,0-15.62,4.29,47.08,47.08,0,0,0-4.34,3.4c-11.89,10.51-15.82,24.82-17.28,33.77A45.77,45.77,0,0,0,470,504.44a42.68,42.68,0,0,0,2.44,5.58,15.46,15.46,0,0,0,4.7,5.19A15.77,15.77,0,0,0,485.5,518a23.86,23.86,0,0,0,18-10.18,10.55,10.55,0,0,0,4.21,7.14,10.36,10.36,0,0,0,6.65,1.86,13.11,13.11,0,0,0,10.47-4.69l-4.41-5.58C518.48,509.48,515.11,510.42,513,509.24Zm-9.49-13.4a51.84,51.84,0,0,1-11.25,12.62,10.17,10.17,0,0,1-6.46,1.86c-4.85-.44-9.26-5.1-10.37-11.65-.13-10.57.89-37.36,18.41-48.79a29.34,29.34,0,0,1,3.31-1.88c4.9-2,7.66-1.38,9.2-.59C515.38,452.07,514.68,478.08,503.5,495.84Z" transform="translate(-426.25 -391.55)"/><polygon class="cls-1" points="1.58 142.34 61.5 142.34 61.26 119.19 24.03 119.19 23.18 4.44 0 4.44 1.58 142.34"/><path d="M601.48,397.39a11.21,11.21,0,0,0-2.33.15c0,.15-.22,4.86-.45,10.47l-.37,10.32h15.93v-4.49H603.74V397.39" transform="translate(-426.25 -391.55)"/><path d="M616.52,397.39V401c0,2-.23,6.73-.45,10.47l-.53,6.88h16.77v-4.49h-5.64c-5.49,0-5.64-.07-5.64-1.87s.15-1.87,4.89-1.87h4.89v-4.48h-4.89c-4.74,0-4.89-.08-4.89-1.87s.15-1.87,5.64-1.87h5.64v-4.49" transform="translate(-426.25 -391.55)"/><path d="M639.23,398.89c-3.39,2-5.64,7.17-5,11,.68,3.66,5.27,8.37,8.27,8.6,6.55.29,9.85-1.13,12.26-5.39,2.93-5.23,1.2-12-3.68-14.58C648,396.87,642.23,397.09,639.23,398.89Zm10,4.86a6,6,0,0,1,1.88,4c0,6.65-9,8.6-11.21,2.39S644.71,399.19,649.23,403.75Z" transform="translate(-426.25 -391.55)"/><path d="M704.34,397.84c-.38.3-.6,5-.6,10.54v9.95h2.63c2.63,0,2.63,0,2.63-3.37,0-2.91.22-3.36,1.5-3.36q1.59,0,3.61,3.36c1.81,3.07,2.33,3.37,4.81,3.37,1.58,0,2.86-.23,2.86-.45a20.69,20.69,0,0,0-2.18-3.59l-2.26-3.22,1.88-1.42c2.94-2.17,3.31-6.8.83-9.72-1.8-2-2.25-2.16-8.57-2.39C707.87,397.39,704.64,397.54,704.34,397.84Zm11,5a2.54,2.54,0,0,1,1.06,2.47c-.15,1.12-1,1.49-3.84,1.64l-3.53.23v-2.62c0-2.54.15-2.69,2.48-2.69A8.05,8.05,0,0,1,715.31,402.85Z" transform="translate(-426.25 -391.55)"/><path d="M598.78,427.22a98.41,98.41,0,0,0-.3,10.32v9.95h5.71c6.39,0,9.62-1.2,11.88-4.27,1.95-2.69,2.41-7.62.9-10.54-2-3.81-4.51-4.93-11.58-5.38A36.88,36.88,0,0,0,598.78,427.22Zm12.48,6.21c3.38,3.66.45,9.57-4.89,9.57h-2.63V431.78h3A5.6,5.6,0,0,1,611.26,433.43Z" transform="translate(-426.25 -391.55)"/><path d="M621,436.27c0,5.31-.07,9.94-.15,10.24s3.38.68,7.9.83l8,.22V443h-5.64c-5.49,0-5.64-.08-5.64-1.87s.15-1.87,4.89-1.87h4.89v-4.48h-5c-4.66,0-4.88-.08-4.66-1.72s.6-1.65,5.49-1.72l5.26-.08v-4.34l-7.66-.22-7.75-.22Z" transform="translate(-426.25 -391.55)"/><path d="M646.22,427.3c-.3.52,7.22,19.74,8,20.26a5.14,5.14,0,0,0,2.33.3c1.36-.08,2.34-1.72,5.94-10.17,2.33-5.46,4.14-10.17,4-10.39-.23-.38-2.86-.38-4.89-.08a35.17,35.17,0,0,0-2.63,6.43c-1.2,3.52-2.41,6.36-2.63,6.36s-1.43-2.84-2.63-6.36a36,36,0,0,0-2.63-6.43C649.15,426.92,646.44,426.92,646.22,427.3Z" transform="translate(-426.25 -391.55)"/><path d="M669.53,427.67c-.15.38-.45,5-.61,10.25l-.37,9.57h5.11l.15-9.35c0-5.16.08-9.79.15-10.32C674,426.7,669.83,426.48,669.53,427.67Z" transform="translate(-426.25 -391.55)"/><path d="M677.87,427.75a80.5,80.5,0,0,0-.45,10.46v9.28h5.19l.22-5.84.23-5.75,4.44,5.75c3.68,4.94,4.73,5.84,6.54,5.84h2.18l.15-8.6c.07-4.71.15-9.35.15-10.25.07-1.34-.38-1.64-2.18-1.64h-2.26l-.37,5.91-.38,6-4.06-5.61c-2.26-3.07-4.14-5.68-4.21-5.83a8.16,8.16,0,0,0-2.48-.53C679,426.7,678.17,427,677.87,427.75Z" transform="translate(-426.25 -391.55)"/><path d="M705.24,427.82a11.09,11.09,0,0,0-6,9.57c0,8.38,9.85,13.54,16.92,8.9,2.11-1.42,2.41-2.69.75-4-.9-.75-1.65-.67-3.76.3-4.51,2.17-8.64-.22-8.64-5,0-3,1-4.63,3.68-5.76,1.88-.74,2.63-.67,4.74.3,2.33,1.2,2.48,1.2,4.21-.52l1.73-1.79-2.11-1.35A13,13,0,0,0,705.24,427.82Z" transform="translate(-426.25 -391.55)"/><path d="M721.4,427.22c-.22.15-.37,4.79-.37,10.32v9.95h5.34l-.23-10.25-.22-10.17-2.11-.07A4.68,4.68,0,0,0,721.4,427.22Z" transform="translate(-426.25 -391.55)"/><path d="M658.62,452.72,657.05,455h2.1a7.77,7.77,0,0,0,4-1.49c1.57-1.27,1.72-1.57.75-2.25C661.93,450,660.28,450.4,658.62,452.72Z" transform="translate(-426.25 -391.55)"/><path d="M635.62,456.76c-7.3,3.14-8.2,13.9-1.58,18.69,3,2.24,9.17,2.09,12.48-.23l2.48-1.79-1.58-1.5c-1.28-1.27-1.8-1.42-3.23-.67-3.76,1.87-7.44,1.12-8.72-1.72-1.13-2.39-1.13-3.51-.08-5.9a5.42,5.42,0,0,1,2.27-2.45c2.15-1.17,4.67-.2,5.33.05,1.56.59,1.79,1.24,2.68,1.21,1.46-.06,2.63-1.83,3.48-3.67L645.9,457a12.88,12.88,0,0,0-6.49-1.18A15.2,15.2,0,0,0,635.62,456.76Z" transform="translate(-426.25 -391.55)"/><path d="M598.48,466.55v10.1h15v-4.49h-9.77v-15.7h-5.26Z" transform="translate(-426.25 -391.55)"/><path d="M614,462.89c4,6.05,4.21,6.65,3.91,10.09l-.37,3.67h5v-4c0-3.44.45-4.56,4.06-10.09l4.13-6.13H627.8c-2.56,0-3.08.3-5,3.36a13.28,13.28,0,0,1-2.48,3.37,14,14,0,0,1-2.41-3.37c-1.88-3.06-2.33-3.36-5.11-3.36h-3Z" transform="translate(-426.25 -391.55)"/><path d="M651.11,466.55v10.1h15.78v-4.49h-5.71c-5.41,0-5.64-.08-5.41-1.72s.67-1.65,5-1.87c4.59-.22,4.66-.22,4.66-2.39v-2.25h-4.81c-4.44,0-4.89-.14-4.74-1.49s.6-1.5,5.57-1.5h5.48v-4.48H651.11Z" transform="translate(-426.25 -391.55)"/><path d="M669.9,466.55v10.1h15.79v-4.49H680c-5.42,0-5.64-.08-5.42-1.72s.68-1.65,5-1.87c4.58-.22,4.66-.22,4.66-2.39v-2.25h-4.81c-4.44,0-4.82-.14-4.44-1.49s1-1.5,5.56-1.5h5.19v-4.48H669.9Z" transform="translate(-426.25 -391.55)"/><path d="M598.48,495.49V505.8h2.25c2.11,0,2.26-.14,2.26-2.91v-2.84l4-.45c4.66-.6,8-3.59,8-7.25a6.81,6.81,0,0,0-2-4.41c-2-2.1-2.56-2.25-8.27-2.47l-6.24-.23Zm11.12-3.44c.3,2.09-1.5,3.44-4.13,3.14-1.81-.23-2.11-.6-2.11-2.47-.07-3.14,0-3.21,3.16-2.69C608.63,490.4,609.45,490.93,609.6,492.05Z" transform="translate(-426.25 -391.55)"/><path d="M622.08,486.29c-3.91,1.79-6.76,6.95-6,10.84,1.88,10.1,16.16,11.89,21,2.69a10,10,0,0,0-4.82-13.6C628.93,484.5,626,484.57,622.08,486.29Zm7.45,3.89a5.66,5.66,0,0,1,1.65,9.27c-2.93,3-7.22,2.39-9-1.2-1.58-3-1.43-4.26,1.05-6.73S626.75,488.91,629.53,490.18Z" transform="translate(-426.25 -391.55)"/><path d="M698.62,486.14c-1.28,2.47-8.42,18.77-8.42,19.22,0,.22,1.13.44,2.48.44,2,0,2.63-.37,3.31-2.24.83-2.09,1-2.24,5-2.24s4.21.15,5,2.24,1.12,2.24,3.53,2.24c1.88,0,2.63-.29,2.33-1-.22-.45-2-4.78-4-9.49s-3.84-9-4.21-9.57C702.46,484.42,699.38,484.65,698.62,486.14Zm4,9c.37,1.5.22,1.72-1.43,1.72-2.26,0-2.18,0-1.2-2.69C700.8,492,701.71,492.35,702.61,495.11Z" transform="translate(-426.25 -391.55)"/><path d="M640.58,495.71V505.8h15v-4.48h-9.78v-15.7h-5.26Z" transform="translate(-426.25 -391.55)"/><path d="M652.61,485.92a59.29,59.29,0,0,0,3.76,6.2c3.31,5.09,3.76,6.36,3.76,9.72,0,3.89,0,4,2.25,4s2.26-.07,2.26-3.88c0-3.37.45-4.56,3.61-9.35a35.89,35.89,0,0,1,4-5.46c.23,0,2.11,4.19,4.14,9.35,3.61,9.05,3.76,9.34,5.94,9.34s2.4-.37,6.46-10.09l4.29-10.09h-2.78c-2.71,0-2.71,0-4.89,5.75a47,47,0,0,1-2.71,6.43c-.3.3-1.5-2.31-2.7-5.83l-2.18-6.35H667.05l-2,3.36c-1.13,1.87-2.26,3.37-2.56,3.37s-1.35-1.5-2.4-3.37c-1.66-3.06-2.11-3.36-4.66-3.36A7.42,7.42,0,0,0,652.61,485.92Z" transform="translate(-426.25 -391.55)"/><path d="M714.26,495c0,5.16-.07,9.57-.15,9.87s3.23.68,7.52.83l7.67.22v-4.56H718.55l.45-7.85.52-7.85h-5.26Z" transform="translate(-426.25 -391.55)"/><path d="M731.55,492.87A95.58,95.58,0,0,1,731.1,503l-.52,2.84h16.76v-4.48h-5.71c-5.41,0-5.64-.08-5.41-1.72s.67-1.65,5-1.87c4.58-.22,4.66-.22,4.66-2.39v-2.25H741c-4.36,0-4.88-.15-4.88-1.49s.52-1.5,5.63-1.5h5.64v-4.48H731.55Z" transform="translate(-426.25 -391.55)"/><path d="M750.35,491.75c0,3.44-.22,8-.45,10.09l-.53,4h5.49v-5.6c0-3.07.23-5.61.6-5.54s2.33,2.55,4.51,5.61c3.46,4.71,4.29,5.53,6.25,5.53h2.18v-5.53c0-3,.22-7.55.45-10.09l.52-4.56H764l-.23,5.68-.22,5.68-4.14-5.68c-3.68-5-4.43-5.61-6.54-5.68h-2.48Z" transform="translate(-426.25 -391.55)"/><path d="M770.8,487.64c.23,1.87.53,2.09,3.46,2.31l3.31.23L777,498l-.52,7.77h5.41V490.1h3.38c3.24,0,3.39-.07,3.39-2.24v-2.24H770.58Z" transform="translate(-426.25 -391.55)"/><path d="M598.48,522.93A72.37,72.37,0,0,1,598,533c-.37,1,.08,1.2,2.26,1.2h2.63l.23-5.84.22-5.75,2.26,3.51c1.28,2,2.48,3.59,2.78,3.59a13.64,13.64,0,0,0,2.63-3.36c1.13-1.87,2.41-3.37,2.71-3.37s.45,2.54.15,5.61l-.53,5.61h5.42V514h-2.56c-2.26,0-2.86.45-4.89,3.74-1.28,2-2.55,3.74-2.85,3.74s-1.58-1.72-2.71-3.74c-1.88-3.37-2.41-3.74-4.74-3.74h-2.55Z" transform="translate(-426.25 -391.55)"/><path d="M622.54,524.12v10.1h7.89c7.89,0,7.89,0,7.89-1.87s-.22-1.8-5.41-2-5.49-.3-5.41-2,.15-1.87,4.66-1.65l4.66.15v-2.24c0-2.24,0-2.24-4.66-2.47-4.14-.22-4.74-.37-4.74-1.72s.6-1.49,5.49-1.72l5.41-.22V514H622.54Z" transform="translate(-426.25 -391.55)"/><path d="M641.11,523.9c-.23,5.46-.38,9.94-.3,10s3.53.3,7.66.37l7.52.23V530.1l-4.88-.07-4.89-.08v-7.77l-.08-7.78-2.25-.22-2.33-.23Z" transform="translate(-426.25 -391.55)"/><path d="M657.65,514.55c-1,.9-.53,12.94.52,15.55,2.26,5.39,10.75,6.58,14.81,2,2.19-2.39,3.31-8.52,2.79-14.73-.23-2.76-.38-3-2.63-3.21l-2.49-.23v6.73c0,5.84-.22,7-1.5,8.3-1.88,1.87-3.91,1.95-5.49.15-1-1.12-1.28-2.91-1.28-8.22V514h-2.1A4.73,4.73,0,0,0,657.65,514.55Z" transform="translate(-426.25 -391.55)"/><path d="M678.92,523.75c0,5.38-.07,9.94-.15,10.24s.83.68,2.18.82l2.41.23.23-6.21.22-6.2,4.74,6.13c3.53,4.71,5.19,6.2,6.46,6.2,1.73,0,1.81-.22,2.33-8.44.76-11.37.61-12-2.4-12.34l-2.41-.23-.22,5.76-.23,5.83-4.36-5.75c-3.68-4.94-4.66-5.76-6.54-5.76h-2.26Z" transform="translate(-426.25 -391.55)"/><polygon points="233.19 5.93 237.54 5.93 246.78 18.15 247.22 5.93 252.02 5.93 251.38 26.96 247.27 26.77 237.88 14.09 237.69 26.96 233.19 26.77 233.19 5.93"/><path d="M693.32,397.48h-4l-9.65,21,5-.18,1.8-4.35,8.31-.06,2.32,4.59h5.08ZM688,409.65l3.1-6.58,2.84,6.58Z" transform="translate(-426.25 -391.55)"/><path d="M734.47,397.48h-9.72v20.85l9.72.18a10.54,10.54,0,0,0,0-21Zm2,15.64a8.7,8.7,0,0,1-7.29.93V401.17a9.53,9.53,0,0,1,6.49,1.08c.82.48,3.94,2.33,4,5.54S737,412.8,736.51,413.12Z" transform="translate(-426.25 -391.55)"/><path d="M624.11,393.75,622.54,396h2.1a7.7,7.7,0,0,0,4-1.5c1.57-1.27,1.72-1.57.75-2.24C627.42,391,625.77,391.43,624.11,393.75Z" transform="translate(-426.25 -391.55)"/></svg>